<mxfile host="app.diagrams.net" modified="2024-05-21T22:12:49.403Z" agent="Mozilla/5.0 (Windows NT 10.0; Win64; x64) AppleWebKit/537.36 (KHTML, like Gecko) Chrome/122.0.0.0 YaBrowser/24.4.0.0 Safari/537.36" etag="6nafgto-hL2prSIoSsp9" version="24.4.4" type="device">
  <diagram name="Страница — 1" id="3uWqGHaQhZGVwMkc5IHR">
    <mxGraphModel dx="6006" dy="5283" grid="1" gridSize="10" guides="1" tooltips="1" connect="1" arrows="1" fold="1" page="1" pageScale="1" pageWidth="2339" pageHeight="3300" math="0" shadow="0">
      <root>
        <mxCell id="0" />
        <mxCell id="1" parent="0" />
        <mxCell id="D8OYl36jwyCKKUaGvx12-1" value="&lt;font size=&quot;1&quot; style=&quot;&quot;&gt;&lt;b style=&quot;font-size: 70px;&quot;&gt;Пользователь&lt;/b&gt;&lt;/font&gt;" style="shape=umlActor;verticalLabelPosition=bottom;verticalAlign=top;html=1;outlineConnect=0;strokeWidth=10;" parent="1" vertex="1">
          <mxGeometry x="-1340" y="-1590" width="300" height="500" as="geometry" />
        </mxCell>
        <mxCell id="D8OYl36jwyCKKUaGvx12-2" value="Смена пароля" style="ellipse;whiteSpace=wrap;html=1;fontSize=55;strokeWidth=10;" parent="1" vertex="1">
          <mxGeometry x="-2220" y="-850" width="500" height="300" as="geometry" />
        </mxCell>
        <mxCell id="D8OYl36jwyCKKUaGvx12-3" value="Смена адреса электронной почты" style="ellipse;whiteSpace=wrap;html=1;fontSize=55;strokeWidth=10;" parent="1" vertex="1">
          <mxGeometry x="-2170" y="-1300" width="500" height="300" as="geometry" />
        </mxCell>
        <mxCell id="D8OYl36jwyCKKUaGvx12-4" value="Смена цветовой палитры" style="ellipse;whiteSpace=wrap;html=1;fontSize=55;strokeWidth=10;" parent="1" vertex="1">
          <mxGeometry x="-2190" y="-430" width="500" height="300" as="geometry" />
        </mxCell>
        <mxCell id="D8OYl36jwyCKKUaGvx12-5" value="Смена языка" style="ellipse;whiteSpace=wrap;html=1;fontSize=55;strokeWidth=10;" parent="1" vertex="1">
          <mxGeometry x="-1050" y="-440" width="500" height="300" as="geometry" />
        </mxCell>
        <mxCell id="D8OYl36jwyCKKUaGvx12-6" value="Выход из приложения" style="ellipse;whiteSpace=wrap;html=1;fontSize=55;strokeWidth=10;" parent="1" vertex="1">
          <mxGeometry x="-1610" y="-430" width="500" height="300" as="geometry" />
        </mxCell>
        <mxCell id="D8OYl36jwyCKKUaGvx12-7" value="Управление задачами" style="ellipse;whiteSpace=wrap;html=1;fontSize=55;strokeWidth=10;" parent="1" vertex="1">
          <mxGeometry x="-2190" y="-1650" width="500" height="300" as="geometry" />
        </mxCell>
        <mxCell id="D8OYl36jwyCKKUaGvx12-8" value="Управление записями" style="ellipse;whiteSpace=wrap;html=1;fontSize=55;strokeWidth=10;" parent="1" vertex="1">
          <mxGeometry x="-2269" y="-2110" width="500" height="300" as="geometry" />
        </mxCell>
        <mxCell id="D8OYl36jwyCKKUaGvx12-9" value="Управление пространствами" style="ellipse;whiteSpace=wrap;html=1;fontSize=55;strokeWidth=10;" parent="1" vertex="1">
          <mxGeometry x="-1710" y="-2110" width="500" height="300" as="geometry" />
        </mxCell>
        <mxCell id="D8OYl36jwyCKKUaGvx12-10" value="Управление расходами" style="ellipse;whiteSpace=wrap;html=1;fontSize=55;strokeWidth=10;" parent="1" vertex="1">
          <mxGeometry x="-530" y="-1070" width="500" height="300" as="geometry" />
        </mxCell>
        <mxCell id="D8OYl36jwyCKKUaGvx12-11" value="Просмотр текущего баланса" style="ellipse;whiteSpace=wrap;html=1;fontSize=55;strokeWidth=10;" parent="1" vertex="1">
          <mxGeometry x="-1060" y="-2110" width="500" height="300" as="geometry" />
        </mxCell>
        <mxCell id="D8OYl36jwyCKKUaGvx12-12" value="Вычисление сложного процента с пополнением" style="ellipse;whiteSpace=wrap;html=1;fontSize=55;strokeWidth=10;" parent="1" vertex="1">
          <mxGeometry x="-530" y="-2120" width="500" height="300" as="geometry" />
        </mxCell>
        <mxCell id="D8OYl36jwyCKKUaGvx12-13" value="Управление типами расходов" style="ellipse;whiteSpace=wrap;html=1;fontSize=55;strokeWidth=10;" parent="1" vertex="1">
          <mxGeometry x="-569" y="-710" width="500" height="300" as="geometry" />
        </mxCell>
        <mxCell id="D8OYl36jwyCKKUaGvx12-14" value="" style="endArrow=none;html=1;rounded=0;entryX=0.925;entryY=0.75;entryDx=0;entryDy=0;entryPerimeter=0;strokeWidth=10;" parent="1" target="D8OYl36jwyCKKUaGvx12-8" edge="1">
          <mxGeometry width="50" height="50" relative="1" as="geometry">
            <mxPoint x="-1390" y="-1560" as="sourcePoint" />
            <mxPoint x="-1360" y="-1360" as="targetPoint" />
          </mxGeometry>
        </mxCell>
        <mxCell id="D8OYl36jwyCKKUaGvx12-15" value="" style="endArrow=none;html=1;rounded=0;entryX=0.708;entryY=0.963;entryDx=0;entryDy=0;entryPerimeter=0;strokeWidth=10;" parent="1" target="D8OYl36jwyCKKUaGvx12-9" edge="1">
          <mxGeometry width="50" height="50" relative="1" as="geometry">
            <mxPoint x="-1270" y="-1640" as="sourcePoint" />
            <mxPoint x="-1360" y="-1480" as="targetPoint" />
          </mxGeometry>
        </mxCell>
        <mxCell id="D8OYl36jwyCKKUaGvx12-16" value="" style="endArrow=none;html=1;rounded=0;entryX=1;entryY=0.5;entryDx=0;entryDy=0;strokeWidth=10;" parent="1" target="D8OYl36jwyCKKUaGvx12-7" edge="1">
          <mxGeometry width="50" height="50" relative="1" as="geometry">
            <mxPoint x="-1480" y="-1450" as="sourcePoint" />
            <mxPoint x="-1489" y="-1480" as="targetPoint" />
          </mxGeometry>
        </mxCell>
        <mxCell id="D8OYl36jwyCKKUaGvx12-17" value="" style="endArrow=none;html=1;rounded=0;entryX=1;entryY=0.5;entryDx=0;entryDy=0;strokeWidth=10;" parent="1" target="D8OYl36jwyCKKUaGvx12-3" edge="1">
          <mxGeometry width="50" height="50" relative="1" as="geometry">
            <mxPoint x="-1430" y="-1250" as="sourcePoint" />
            <mxPoint x="-1498" y="-1229" as="targetPoint" />
          </mxGeometry>
        </mxCell>
        <mxCell id="D8OYl36jwyCKKUaGvx12-18" value="" style="endArrow=none;html=1;rounded=0;entryX=1;entryY=0;entryDx=0;entryDy=0;strokeWidth=10;" parent="1" target="D8OYl36jwyCKKUaGvx12-2" edge="1">
          <mxGeometry width="50" height="50" relative="1" as="geometry">
            <mxPoint x="-1450" y="-1120" as="sourcePoint" />
            <mxPoint x="-1459" y="-1450" as="targetPoint" />
          </mxGeometry>
        </mxCell>
        <mxCell id="D8OYl36jwyCKKUaGvx12-19" value="" style="endArrow=none;html=1;rounded=0;exitX=1;exitY=0;exitDx=0;exitDy=0;strokeWidth=10;" parent="1" source="D8OYl36jwyCKKUaGvx12-4" edge="1">
          <mxGeometry width="50" height="50" relative="1" as="geometry">
            <mxPoint x="-1350" y="-1240" as="sourcePoint" />
            <mxPoint x="-1420" y="-950" as="targetPoint" />
          </mxGeometry>
        </mxCell>
        <mxCell id="D8OYl36jwyCKKUaGvx12-20" value="" style="endArrow=none;html=1;rounded=0;entryX=0.5;entryY=0;entryDx=0;entryDy=0;strokeWidth=10;" parent="1" target="D8OYl36jwyCKKUaGvx12-6" edge="1">
          <mxGeometry width="50" height="50" relative="1" as="geometry">
            <mxPoint x="-1280" y="-970" as="sourcePoint" />
            <mxPoint x="-1347" y="-1164" as="targetPoint" />
          </mxGeometry>
        </mxCell>
        <mxCell id="D8OYl36jwyCKKUaGvx12-21" value="" style="endArrow=none;html=1;rounded=0;entryX=0.5;entryY=1;entryDx=0;entryDy=0;strokeWidth=10;" parent="1" target="D8OYl36jwyCKKUaGvx12-11" edge="1">
          <mxGeometry width="50" height="50" relative="1" as="geometry">
            <mxPoint x="-1030" y="-1640" as="sourcePoint" />
            <mxPoint x="-1439" y="-1430" as="targetPoint" />
          </mxGeometry>
        </mxCell>
        <mxCell id="D8OYl36jwyCKKUaGvx12-22" value="" style="endArrow=none;html=1;rounded=0;entryX=0;entryY=1;entryDx=0;entryDy=0;strokeWidth=10;" parent="1" target="D8OYl36jwyCKKUaGvx12-12" edge="1">
          <mxGeometry width="50" height="50" relative="1" as="geometry">
            <mxPoint x="-930" y="-1560" as="sourcePoint" />
            <mxPoint x="-1429" y="-1420" as="targetPoint" />
          </mxGeometry>
        </mxCell>
        <mxCell id="D8OYl36jwyCKKUaGvx12-23" value="" style="endArrow=none;html=1;rounded=0;entryX=0;entryY=0.5;entryDx=0;entryDy=0;strokeWidth=10;" parent="1" target="D8OYl36jwyCKKUaGvx12-13" edge="1">
          <mxGeometry width="50" height="50" relative="1" as="geometry">
            <mxPoint x="-930" y="-1060" as="sourcePoint" />
            <mxPoint x="-1419" y="-1410" as="targetPoint" />
          </mxGeometry>
        </mxCell>
        <mxCell id="D8OYl36jwyCKKUaGvx12-24" value="" style="endArrow=none;html=1;rounded=0;entryX=0;entryY=0;entryDx=0;entryDy=0;strokeWidth=10;" parent="1" target="D8OYl36jwyCKKUaGvx12-10" edge="1">
          <mxGeometry width="50" height="50" relative="1" as="geometry">
            <mxPoint x="-910" y="-1200" as="sourcePoint" />
            <mxPoint x="-1409" y="-1400" as="targetPoint" />
          </mxGeometry>
        </mxCell>
        <mxCell id="D8OYl36jwyCKKUaGvx12-25" value="" style="endArrow=none;html=1;rounded=0;entryX=0.258;entryY=0.038;entryDx=0;entryDy=0;entryPerimeter=0;strokeWidth=10;" parent="1" target="D8OYl36jwyCKKUaGvx12-5" edge="1">
          <mxGeometry width="50" height="50" relative="1" as="geometry">
            <mxPoint x="-1090" y="-980" as="sourcePoint" />
            <mxPoint x="-1399" y="-1390" as="targetPoint" />
          </mxGeometry>
        </mxCell>
        <mxCell id="D8OYl36jwyCKKUaGvx12-26" value="Управление доходами" style="ellipse;whiteSpace=wrap;html=1;fontSize=55;strokeWidth=10;" parent="1" vertex="1">
          <mxGeometry x="-530" y="-1450" width="500" height="300" as="geometry" />
        </mxCell>
        <mxCell id="D8OYl36jwyCKKUaGvx12-27" value="Управление типами доходов" style="ellipse;whiteSpace=wrap;html=1;fontSize=55;strokeWidth=10;" parent="1" vertex="1">
          <mxGeometry x="-530" y="-1780" width="500" height="300" as="geometry" />
        </mxCell>
        <mxCell id="D8OYl36jwyCKKUaGvx12-28" value="" style="endArrow=none;html=1;rounded=0;entryX=0.008;entryY=0.625;entryDx=0;entryDy=0;entryPerimeter=0;strokeWidth=10;" parent="1" target="D8OYl36jwyCKKUaGvx12-27" edge="1">
          <mxGeometry width="50" height="50" relative="1" as="geometry">
            <mxPoint x="-950" y="-1440" as="sourcePoint" />
            <mxPoint x="-1112" y="-1482" as="targetPoint" />
          </mxGeometry>
        </mxCell>
        <mxCell id="D8OYl36jwyCKKUaGvx12-29" value="" style="endArrow=none;html=1;rounded=0;entryX=0;entryY=0.5;entryDx=0;entryDy=0;strokeWidth=10;" parent="1" target="D8OYl36jwyCKKUaGvx12-26" edge="1">
          <mxGeometry width="50" height="50" relative="1" as="geometry">
            <mxPoint x="-930" y="-1330" as="sourcePoint" />
            <mxPoint x="-1039" y="-1440" as="targetPoint" />
          </mxGeometry>
        </mxCell>
        <mxCell id="D8OYl36jwyCKKUaGvx12-31" value="&lt;font size=&quot;1&quot; style=&quot;&quot;&gt;&lt;b style=&quot;font-size: 70px;&quot;&gt;Гость&lt;/b&gt;&lt;/font&gt;" style="shape=umlActor;verticalLabelPosition=bottom;verticalAlign=top;html=1;outlineConnect=0;strokeWidth=10;" parent="1" vertex="1">
          <mxGeometry x="-1319" y="-2900" width="300" height="500" as="geometry" />
        </mxCell>
        <mxCell id="D8OYl36jwyCKKUaGvx12-32" value="" style="endArrow=none;html=1;rounded=0;strokeWidth=10;" parent="1" target="D8OYl36jwyCKKUaGvx12-35" edge="1">
          <mxGeometry width="50" height="50" relative="1" as="geometry">
            <mxPoint x="-1380" y="-2650" as="sourcePoint" />
            <mxPoint x="-890.54" y="-2460" as="targetPoint" />
          </mxGeometry>
        </mxCell>
        <mxCell id="D8OYl36jwyCKKUaGvx12-33" value="Аутентификация" style="ellipse;whiteSpace=wrap;html=1;fontSize=55;strokeWidth=10;" parent="1" vertex="1">
          <mxGeometry x="-760" y="-2740" width="500" height="300" as="geometry" />
        </mxCell>
        <mxCell id="D8OYl36jwyCKKUaGvx12-34" value="" style="endArrow=none;html=1;rounded=0;entryX=0;entryY=0.5;entryDx=0;entryDy=0;strokeWidth=10;" parent="1" target="D8OYl36jwyCKKUaGvx12-33" edge="1">
          <mxGeometry width="50" height="50" relative="1" as="geometry">
            <mxPoint x="-980" y="-2640" as="sourcePoint" />
            <mxPoint x="-950.54" y="-2390" as="targetPoint" />
          </mxGeometry>
        </mxCell>
        <mxCell id="D8OYl36jwyCKKUaGvx12-35" value="Регистрация" style="ellipse;whiteSpace=wrap;html=1;fontSize=55;strokeWidth=10;" parent="1" vertex="1">
          <mxGeometry x="-2269" y="-2720" width="500" height="300" as="geometry" />
        </mxCell>
        <mxCell id="ARWZhtoNz7ImLijdMCX7-3" value="&lt;b style=&quot;font-size: 115px;&quot;&gt;&lt;font style=&quot;font-size: 115px;&quot;&gt;Диаграмма вариантов использования&lt;/font&gt;&lt;/b&gt;" style="text;html=1;align=center;verticalAlign=middle;resizable=0;points=[];autosize=1;strokeColor=none;fillColor=none;fontSize=115;" parent="1" vertex="1">
          <mxGeometry x="-2269" y="-3230" width="2200" height="150" as="geometry" />
        </mxCell>
      </root>
    </mxGraphModel>
  </diagram>
</mxfile>
